<svg xmlns="http://www.w3.org/2000/svg" width="20.001" height="14.001" viewBox="0 0 20.001 14.001">
  <g id="code" transform="translate(-2 -4.999)">
    <path id="_-Icon-Сolor" data-name="🎨-Icon-Сolor" d="M7.232,5.359A1,1,0,0,1,8.769,6.64h0L4.292,12.01l4.316,5.363a1,1,0,0,1-1.559,1.254h0l-4.828-6a1,1,0,0,1,.011-1.268h0Zm8.314-.138a1,1,0,0,1,1.406.152h0l4.828,6a1,1,0,0,1-.011,1.268h0l-5,6a1,1,0,1,1-1.537-1.282h0l4.477-5.37L15.392,6.627A1,1,0,0,1,15.545,5.221Z" fill="#183c7c"/>
  </g>
</svg>
