<svg xmlns="http://www.w3.org/2000/svg" width="15.998" height="15.978" viewBox="0 0 15.998 15.978">
  <g id="edit" transform="translate(-4 -4.022)">
    <path id="_-Icon-Сolor" data-name="🎨-Icon-Сolor" d="M16.019,10.679l-2.7-2.7,1.948-1.949,2.694,2.694ZM9.08,17.625,6.1,17.9l.264-2.956,5.617-5.617,2.7,2.7ZM19.4,7.338h0L16.665,4.6a1.976,1.976,0,0,0-2.716-.069l-9,9a1.973,1.973,0,0,0-.57,1.214L4,18.91A1,1,0,0,0,5,20a.91.91,0,0,0,.091,0l4.17-.379a1.974,1.974,0,0,0,1.214-.568l9-9A1.926,1.926,0,0,0,19.4,7.338Z" fill="#183c7c"/>
  </g>
</svg>
