<svg xmlns="http://www.w3.org/2000/svg" width="20" height="14.001" viewBox="0 0 20 14.001">
  <g id="eye" transform="translate(-2 -4.999)">
    <path id="_-Icon-Сolor" data-name="🎨-Icon-Сolor" d="M12,13.5A1.5,1.5,0,1,1,13.5,12,1.5,1.5,0,0,1,12,13.5m0-5A3.5,3.5,0,1,0,15.5,12,3.5,3.5,0,0,0,12,8.5m.22,8.5c-4.306.1-7.115-3.583-8.047-5C5.2,10.391,7.783,7.1,11.781,7c4.289-.109,7.114,3.583,8.046,5C18.8,13.61,16.217,16.9,12.22,17m9.648-5.5C21.23,10.391,17.706,4.817,11.73,5c-5.528.14-8.743,5.01-9.6,6.5a1,1,0,0,0,0,.995c.629,1.1,4.029,6.5,9.892,6.5q.123,0,.246,0c5.527-.141,8.743-5.01,9.6-6.5a1,1,0,0,0,0-.995" fill="#183c7c"/>
  </g>
</svg>
