<svg id="Group_4851" data-name="Group 4851" xmlns="http://www.w3.org/2000/svg" width="39.01" height="37.566" viewBox="0 0 39.01 37.566">
  <path id="Path_1873" data-name="Path 1873" d="M142.836,156.386a3.693,3.693,0,1,1,3.693-3.693A3.7,3.7,0,0,1,142.836,156.386Zm0-5.745a2.052,2.052,0,1,0,2.052,2.052A2.054,2.054,0,0,0,142.836,150.641Z" transform="translate(-130.017 -132.264)" fill="#ff336b"/>
  <path id="Path_1874" data-name="Path 1874" d="M132.836,160.386a3.693,3.693,0,1,1,3.693-3.693A3.7,3.7,0,0,1,132.836,160.386Zm0-5.745a2.052,2.052,0,1,0,2.052,2.052A2.054,2.054,0,0,0,132.836,154.641Z" transform="translate(-128.223 -132.981)" fill="#ff336b"/>
  <path id="Path_1875" data-name="Path 1875" d="M137.77,170.237l-1.605-.343,1.918-8.95c.368-1.72,1.6-2.789,3.658-3.174l4.7-.784,5.452-4.922.51.871c.079.136,1.922,3.352-.318,5.47l-3.65,3.612-5.575,1.7-.48-1.57,5.188-1.586,3.377-3.341a2.387,2.387,0,0,0,.442-2.491l-4.2,3.793-5.16.86c-1.406.264-2.11.834-2.339,1.9Z" transform="translate(-129.482 -132.813)" fill="#ff336b"/>
  <rect id="Rectangle_401" data-name="Rectangle 401" width="8.369" height="1.641" transform="translate(14.066 37.091) rotate(-78.679)" fill="#ff336b"/>
  <path id="Path_1876" data-name="Path 1876" d="M165.374,159.386a3.693,3.693,0,1,1,3.693-3.693A3.7,3.7,0,0,1,165.374,159.386Zm0-5.745a2.052,2.052,0,1,0,2.052,2.052A2.054,2.054,0,0,0,165.374,153.641Z" transform="translate(-134.059 -132.802)" fill="#ff336b"/>
  <path id="Path_1877" data-name="Path 1877" d="M170.2,172.074l-1.838-6.4c-.235-1.083-.755-2.036-3.049-2.036H156.58a2.412,2.412,0,0,0,2.172,1.641h6.565v1.641h-6.565c-2.714,0-3.864-2.6-4.093-3.968L154.5,162h10.817c2.612,0,4.173,1.1,4.639,3.279l1.825,6.342Z" transform="translate(-132.771 -134.595)" fill="#ff336b"/>
  <rect id="Rectangle_402" data-name="Rectangle 402" width="1.641" height="6.111" transform="translate(29.312 31.788) rotate(-19.955)" fill="#ff336b"/>
  <path id="Path_1878" data-name="Path 1878" d="M129.627,172.023l-1.605-.343,1.215-5.667c.368-1.72,1.6-2.789,3.658-3.174l4.093-.818.322,1.608-4.1.821c-1.431.269-2.135.839-2.364,1.907Z" transform="translate(-128.022 -134.599)" fill="#ff336b"/>
  <path id="Path_1879" data-name="Path 1879" d="M132.372,146.267l.609-5.593-4.477-3.461,12.629-5.406.646,1.509-10.062,4.306,2.994,2.315-.4,3.716,10.055-4.3.646,1.509Z" transform="translate(-128.108 -129.18)" fill="#ff336b"/>
  <rect id="Rectangle_403" data-name="Rectangle 403" width="1.641" height="23.068" transform="translate(11.275 0.647) rotate(-23.221)" fill="#ff336b"/>
  <rect id="Rectangle_404" data-name="Rectangle 404" width="1.641" height="3.926" transform="translate(21.634 24.904) rotate(-22.44)" fill="#ff336b"/>
  <rect id="Rectangle_405" data-name="Rectangle 405" width="1.641" height="6.21" transform="translate(24.493 31.826) rotate(-22.44)" fill="#ff336b"/>
</svg>
