<svg id="Group_3466" data-name="Group 3466" xmlns="http://www.w3.org/2000/svg" width="35.166" height="27.881" viewBox="0 0 35.166 27.881">
  <path id="Path_1857" data-name="Path 1857" d="M503.548,278.447a1.706,1.706,0,0,1-.542-.09,1.65,1.65,0,0,1-1.145-1.588V273.42h-2.512A3.353,3.353,0,0,1,496,270.071V258.349A3.353,3.353,0,0,1,499.349,255h19.257a3.353,3.353,0,0,1,3.349,3.349v11.722a3.353,3.353,0,0,1-3.349,3.349H508.141l-3.265,4.353A1.648,1.648,0,0,1,503.548,278.447Zm-4.2-21.772a1.676,1.676,0,0,0-1.675,1.674v11.722a1.676,1.676,0,0,0,1.675,1.675h4.186v5.024l3.768-5.024h11.3a1.676,1.676,0,0,0,1.675-1.675V258.349a1.676,1.676,0,0,0-1.675-1.674Z" transform="translate(-496 -255)" fill="#ff336b"/>
  <path id="Path_1858" data-name="Path 1858" d="M527.226,283.858a1.659,1.659,0,0,1-1.264-.588l-3.3-3.85h-6.313A3.352,3.352,0,0,1,513,276.071v-.837h1.675v.837a1.676,1.676,0,0,0,1.675,1.675h7.083l3.8,4.435v-4.435h3.349a1.676,1.676,0,0,0,1.675-1.675V264.349a1.676,1.676,0,0,0-1.675-1.675h-5.024V261h5.024a3.352,3.352,0,0,1,3.349,3.349v11.722a3.352,3.352,0,0,1-3.349,3.349h-1.675v2.76a1.661,1.661,0,0,1-1.094,1.571A1.7,1.7,0,0,1,527.226,283.858Z" transform="translate(-498.766 -255.976)" fill="#ff336b"/>
</svg>
