<svg id="Group_3467" data-name="Group 3467" xmlns="http://www.w3.org/2000/svg" width="36.807" height="38.508" viewBox="0 0 36.807 38.508">
  <path id="Path_1859" data-name="Path 1859" d="M514.7,346.851l-1.125-1.125.1-.1a2.527,2.527,0,0,1,2.054-.923h11.627c.9-.377,4.935-4.279,5.848-5.3a45.82,45.82,0,0,0,3.6-5.634,2.859,2.859,0,0,0-2.027-.22c-1.032.239-1.726.965-2.654,2.77l-.116.226-3.871,2.01-.733-1.412,3.423-1.778c.944-1.788,1.9-2.973,3.59-3.366a3.913,3.913,0,0,1,4,1.1l.273.367-.18.42a43.171,43.171,0,0,1-4.115,6.58c-.052.058-5.475,5.833-6.956,5.833h-11.7a.986.986,0,0,0-.888.416Zm12.617-2.139Z" transform="translate(-501.879 -312.882)" fill="#ff336b"/>
  <path id="Path_1860" data-name="Path 1860" d="M524.182,342.158h-7.159v-1.591h7.159c1.1,0,1.591-.6,1.591-1.193s-.491-1.193-1.591-1.193H519.41a2.931,2.931,0,0,1-1.638-.823,3.492,3.492,0,0,0-1.318-.767h-3.977a4.862,4.862,0,0,0-2.64,1.378c-1.166,1.167-3.269,3.157-3.29,3.178l-1.094-1.156c.021-.019,2.108-1.995,3.279-3.166A6.3,6.3,0,0,1,512.477,335h3.977a4.047,4.047,0,0,1,2.285,1.1,4.417,4.417,0,0,0,.737.5l4.706-.007a2.809,2.809,0,1,1,0,5.568Z" transform="translate(-500.217 -313.525)" fill="#ff336b"/>
  <path id="Path_1861" data-name="Path 1861" d="M508.744,352.766l-9.874-9.874,4.306-4.306,9.874,9.874Zm-7.624-9.874,7.624,7.625,2.057-2.057-7.625-7.625Z" transform="translate(-498.87 -314.258)" fill="#ff336b"/>
  <path id="Path_1862" data-name="Path 1862" d="M528.591,320.931H527V309h1.591v3.326a2.335,2.335,0,0,1,.8-.144,3.182,3.182,0,1,1,0,6.363,2.336,2.336,0,0,1-.8-.144Zm-1.372-5.568,1.11,1a2.023,2.023,0,0,0,1.058.591,1.591,1.591,0,1,0,0-3.182,2.023,2.023,0,0,0-1.058.591Z" transform="translate(-504.626 -308.205)" fill="#ff336b"/>
  <path id="Path_1863" data-name="Path 1863" d="M533.568,328.568a3.185,3.185,0,0,1-3.182-3.181,2.32,2.32,0,0,1,.145-.8H528V323h11.931v1.591H536.6a2.317,2.317,0,0,1,.145.8A3.185,3.185,0,0,1,533.568,328.568Zm0-5.351-1,1.111a2.042,2.042,0,0,0-.591,1.059,1.591,1.591,0,1,0,3.182,0,2.041,2.041,0,0,0-.591-1.059Z" transform="translate(-504.831 -311.069)" fill="#ff336b"/>
  <path id="Path_1864" data-name="Path 1864" d="M527.568,335.135h-1.591v-2.53a2.337,2.337,0,0,1-.8.144,3.182,3.182,0,1,1,0-6.363,2.336,2.336,0,0,1,.8.144V324h1.591Zm-2.386-7.158a1.591,1.591,0,0,0,0,3.181,2.023,2.023,0,0,0,1.058-.591l1.11-1-1.11-1A2.023,2.023,0,0,0,525.182,327.977Z" transform="translate(-503.603 -311.274)" fill="#ff336b"/>
  <path id="Path_1865" data-name="Path 1865" d="M524.931,323.568H513v-1.591h3.326a2.337,2.337,0,0,1-.144-.8,3.182,3.182,0,1,1,6.363,0,2.319,2.319,0,0,1-.145.8h2.531Zm-5.568-3.977a1.592,1.592,0,0,0-1.591,1.591,2.036,2.036,0,0,0,.591,1.059l1,1.11,1-1.11a2.036,2.036,0,0,0,.591-1.059A1.592,1.592,0,0,0,519.363,319.591Z" transform="translate(-501.761 -310.046)" fill="#ff336b"/>
  <path id="Path_1866" data-name="Path 1866" d="M515.239,329.209a12.725,12.725,0,1,1,20.744-2.544l-1.405-.743a11.136,11.136,0,1,0-18.154,2.226Z" transform="translate(-501.557 -308)" fill="#ff336b"/>
</svg>
