<svg xmlns="http://www.w3.org/2000/svg" width="45.383" height="46.995" viewBox="0 0 45.383 46.995">
  <g id="Group_4853" data-name="Group 4853" transform="translate(-289 -288.005)">
    <path id="Path_2120" data-name="Path 2120" d="M306,317h6a2.85,2.85,0,0,0-1,2,3,3,0,0,0,6,0,2.882,2.882,0,0,0-1-2h6v14a3,3,0,0,1-3,3H293a3,3,0,0,1-3-3V304a3,3,0,0,1,3-3h13v6a2.781,2.781,0,0,1,2-1,3,3,0,0,1,0,6,2.536,2.536,0,0,1-2-1v6" fill="none" stroke="#ff336b" stroke-linejoin="round" stroke-width="2"/>
    <path id="Path_2121" data-name="Path 2121" d="M312,300.314l4.244-4.24a2.775,2.775,0,0,0,.706,2.12,3,3,0,0,0,4.244-4.241,2.674,2.674,0,0,0-2.121-.707l4.244-4.241,9.188,9.187a3,3,0,0,1,0,4.244l-9.193,9.187Z" fill="none" stroke="#ff336b" stroke-linejoin="round" stroke-width="2"/>
    <path id="Path_2122" data-name="Path 2122" d="M306,334v-7a2.683,2.683,0,0,1-2,1,3,3,0,0,1,0-6,2.624,2.624,0,0,1,2,1v-6" fill="none" stroke="#ff336b" stroke-linejoin="round" stroke-width="2"/>
    <path id="Path_2123" data-name="Path 2123" d="M290,317h6a2.65,2.65,0,0,1-1-2,3,3,0,0,1,6,0,2.7,2.7,0,0,1-1,2h6" fill="none" stroke="#ff336b" stroke-linejoin="round" stroke-width="2"/>
  </g>
</svg>
