<svg id="Group_4850" data-name="Group 4850" xmlns="http://www.w3.org/2000/svg" width="29.718" height="36.482" viewBox="0 0 29.718 36.482">
  <path id="Path_1849" data-name="Path 1849" d="M520.949,159.692h-1.564v-1.564a6.018,6.018,0,0,0-3.91-1.564c-1.8,0-3.748,1.188-3.92,1.635l.01,1.493H510v-1.564c0-1.551,3.183-3.127,5.473-3.128h0c2.29,0,5.473,1.577,5.473,3.128Z" transform="translate(-500.615 -123.21)" fill="#ec1651"/>
  <path id="Path_1850" data-name="Path 1850" d="M515.91,154.385a3.938,3.938,0,0,1-3.91-4.133v-1.118a3.916,3.916,0,1,1,7.82,0v1.118A3.937,3.937,0,0,1,515.91,154.385Zm0-7.82a2.358,2.358,0,0,0-2.346,2.57v1.118a2.356,2.356,0,1,0,4.692,0v-1.118A2.358,2.358,0,0,0,515.91,146.564Z" transform="translate(-501.051 -121.03)" fill="#ec1651"/>
  <path id="Path_1851" data-name="Path 1851" d="M532.949,159.692h-1.564v-1.564a6.018,6.018,0,0,0-3.91-1.564c-1.8,0-3.748,1.188-3.92,1.635L522,158.128c0-1.551,3.183-3.127,5.473-3.128h0c2.29,0,5.473,1.577,5.473,3.128Z" transform="translate(-503.231 -123.21)" fill="#ec1651"/>
  <path id="Path_1852" data-name="Path 1852" d="M527.91,154.385a3.938,3.938,0,0,1-3.91-4.133v-1.118a3.916,3.916,0,1,1,7.82,0v1.118A3.938,3.938,0,0,1,527.91,154.385Zm0-7.82a2.358,2.358,0,0,0-2.346,2.57v1.118a2.356,2.356,0,1,0,4.692,0v-1.118A2.358,2.358,0,0,0,527.91,146.564Z" transform="translate(-503.667 -121.03)" fill="#ec1651"/>
  <path id="Path_1853" data-name="Path 1853" d="M499.564,159.692H498v-1.564c0-1.551,3.183-3.127,5.473-3.128h0c2.29,0,5.473,1.577,5.473,3.128h-1.564a6.018,6.018,0,0,0-3.91-1.564c-1.8,0-3.748,1.188-3.92,1.635Z" transform="translate(-498 -123.21)" fill="#ec1651"/>
  <path id="Path_1854" data-name="Path 1854" d="M503.91,154.385a3.938,3.938,0,0,1-3.91-4.133v-1.118a3.916,3.916,0,1,1,7.82,0v1.118A3.938,3.938,0,0,1,503.91,154.385Zm0-7.82a2.358,2.358,0,0,0-2.346,2.57v1.118a2.356,2.356,0,1,0,4.692,0v-1.118A2.358,2.358,0,0,0,503.91,146.564Z" transform="translate(-498.436 -121.03)" fill="#ec1651"/>
  <rect id="Rectangle_355" data-name="Rectangle 355" width="1.224" height="4.895" transform="translate(14.247 0)" fill="#ec1651"/>
  <rect id="Rectangle_356" data-name="Rectangle 356" width="4.692" height="1.564" transform="matrix(0.866, -0.5, 0.5, 0.866, 20.555, 7.26)" fill="#ec1651"/>
  <rect id="Rectangle_357" data-name="Rectangle 357" width="1.564" height="4.692" transform="translate(20.563 15.653) rotate(-60.001)" fill="#ec1651"/>
  <rect id="Rectangle_358" data-name="Rectangle 358" width="1.564" height="1.99" transform="matrix(0.866, -0.5, 0.5, 0.866, 9.667, 4.029)" fill="#ec1651"/>
  <rect id="Rectangle_359" data-name="Rectangle 359" width="1.835" height="1.224" transform="translate(22.201 11.013)" fill="#ec1651"/>
  <rect id="Rectangle_360" data-name="Rectangle 360" width="1.992" height="1.564" transform="matrix(0.5, -0.866, 0.866, 0.5, 17.701, 4.97)" fill="#ec1651"/>
  <rect id="Rectangle_361" data-name="Rectangle 361" width="1.564" height="4.692" transform="translate(3.925 6.269) rotate(-60.001)" fill="#ec1651"/>
  <rect id="Rectangle_362" data-name="Rectangle 362" width="4.692" height="1.564" transform="matrix(0.866, -0.5, 0.5, 0.866, 3.918, 16.645)" fill="#ec1651"/>
  <rect id="Rectangle_363" data-name="Rectangle 363" width="1.835" height="1.224" transform="translate(5.681 11.013)" fill="#ec1651"/>
  <path id="Path_1855" data-name="Path 1855" d="M517.234,141.692h-2.212L513,139.67V137h1.564v2.022l1.106,1.106h.916l1.106-1.106V137h1.564v2.67Z" transform="translate(-501.269 -119.287)" fill="#ec1651"/>
  <path id="Path_1856" data-name="Path 1856" d="M518.6,134.513h-6.256v-1.564a2.007,2.007,0,0,0-.66-1.529,5.472,5.472,0,1,1,7.572,0,2.005,2.005,0,0,0-.655,1.529Zm-4.692-1.564h3.128a3.554,3.554,0,0,1,1.1-2.624,3.907,3.907,0,1,0-5.338,0,3.555,3.555,0,0,1,1.107,2.623Z" transform="translate(-500.615 -116.017)" fill="#ec1651"/>
</svg>
