<svg xmlns="http://www.w3.org/2000/svg" width="29.686" height="26.356" viewBox="0 0 29.686 26.356">
  <g id="Group_4849" data-name="Group 4849" transform="translate(-48 -50.394)">
    <path id="Path_2111" data-name="Path 2111" d="M66.994,70.831c3.125-1.17,4.919-5.465,4.919-8.609v-1.23c0-.871,1.23-2.778,1.23-4.919a4.9,4.9,0,0,0-1.7-3.958c-1.078-1.082-2.605-.9-2.605.268v1.23c0,3.242-4.589,7.994-6.149,7.994H59V74.521h2.46c2.11,0,1.9,1.23,4.87,1.23h9.889a3.053,3.053,0,0,0,3.075-2.46s1.107-6.529,1.23-8.609-.421-3.075-2.46-3.075H73.143" transform="translate(-3.851 0)" fill="none" stroke="#ec1651" stroke-miterlimit="10" stroke-width="2"/>
    <rect id="Rectangle_571" data-name="Rectangle 571" width="6.149" height="15.988" transform="translate(49 59.762)" fill="none" stroke="#ec1651" stroke-miterlimit="10" stroke-width="2"/>
    <line id="Line_184" data-name="Line 184" y2="1.845" transform="translate(52.075 62.222)" fill="none" stroke="#ec1651" stroke-miterlimit="10" stroke-width="2"/>
  </g>
</svg>
