<svg xmlns="http://www.w3.org/2000/svg" width="9.028" height="21.522" viewBox="0 0 9.028 21.522">
  <g id="Group_4855" data-name="Group 4855" transform="translate(-258.453 -314.494)">
    <g id="Group_4854" data-name="Group 4854" transform="translate(259.23 316.244)">
      <path id="Path_2124" data-name="Path 2124" d="M264.652,315.244a2.078,2.078,0,1,0,2.078,2.078A2.078,2.078,0,0,0,264.652,315.244Zm-.776,14.084h0l.6-2.085c0-.005,0-.01,0-.015l.774-2.659a4.473,4.473,0,0,0,.228-1.248,1.737,1.737,0,0,0-.547-1.309,2,2,0,0,0-1.436-.517c-1.5,0-2.921,1.15-4.227,3.418a.492.492,0,0,0,.107.561.437.437,0,0,0,.062.036l.02.008.04.014.023.005.036.005.022,0h.013a.328.328,0,0,0,.08-.012l.01,0a.418.418,0,0,0,.077-.033l.013-.008a.625.625,0,0,0,.129-.1l.01-.01c.017-.018.033-.036.047-.053l.006-.008.032-.043,0-.006.022-.033,0-.006.006-.01a4.981,4.981,0,0,1,1.315-1.5.487.487,0,0,1,.315-.133c.029,0,.063.031.086.058a.2.2,0,0,1,.06.12,4.7,4.7,0,0,1-.2.963l-.782,2.71h0l-.6,2.085,0,.015-.773,2.659a4.465,4.465,0,0,0-.228,1.247,1.738,1.738,0,0,0,.547,1.31,2.005,2.005,0,0,0,1.436.517c1.5,0,2.921-1.15,4.226-3.418a.492.492,0,0,0-.107-.561.434.434,0,0,0-.062-.035l-.023-.01-.037-.013-.027-.006-.031,0-.027,0h-.009a.347.347,0,0,0-.085.013l-.006,0a.39.39,0,0,0-.081.034l-.009.005a.641.641,0,0,0-.133.105l-.006.006c-.018.019-.035.038-.049.056l0,0c-.014.018-.026.034-.036.048l0,0-.022.034,0,.005-.006.01a4.979,4.979,0,0,1-1.315,1.5.485.485,0,0,1-.315.133c-.029,0-.063-.031-.086-.057a.2.2,0,0,1-.06-.12,4.688,4.688,0,0,1,.2-.963Z" transform="translate(-259.23 -316.244)" fill="none" stroke="#183c7c" stroke-width="1.5"/>
    </g>
  </g>
</svg>
